<?xml version="1.0" encoding="utf-8"?>
<!-- Generator: Adobe Illustrator 24.0.1, SVG Export Plug-In . SVG Version: 6.00 Build 0)  -->
<svg version="1.1" id="레이어_1" xmlns="http://www.w3.org/2000/svg" xmlns:xlink="http://www.w3.org/1999/xlink" x="0px"
	 y="0px" viewBox="0 0 50 50" style="enable-background:new 0 0 50 50;" xml:space="preserve">
<style type="text/css">
	.st0{fill:none;}
	.st1{fill:#BBDAF6;}
	.st2{fill:none;stroke:#572826;stroke-width:1.8;stroke-linecap:round;stroke-linejoin:round;}
	.st3{fill:#D7E9FF;stroke:#000000;stroke-miterlimit:10;}
	.st4{fill:#C5DDEF;}
</style>
<rect class="st0" width="50" height="50"/>
<title>자산 2</title>
<path class="st1" d="M24,35.3c0.1,1.3-1,2.5-2.3,2.5l0,0H3.2c-1.3-0.1-2.3-1.2-2.3-2.5v-26C0.8,8,1.9,6.9,3.2,6.8h14
	c1.3,0.1,2.3,1.2,2.3,2.5L24,35.3z"/>
<path class="st2" d="M24,35.3c0.1,1.3-1,2.5-2.3,2.5l0,0H3.2c-1.3-0.1-2.3-1.2-2.3-2.5v-26C0.8,8,1.9,6.9,3.2,6.8h14
	c1.3,0.1,2.3,1.2,2.3,2.5L24,35.3z"/>
<path class="st3" d="M49,40.7c0.1,1.3-1,2.4-2.3,2.5H3.2c-1.3-0.1-2.3-1.2-2.3-2.5v-26c-0.1-1.3,1-2.4,2.3-2.5h43.6
	c1.3,0.1,2.3,1.2,2.3,2.5L49,40.7L49,40.7z"/>
<path class="st4" d="M46.8,12.2H37c-5.3,8.7-13.4,22.3-18.6,31h28.4c1.3-0.1,2.3-1.2,2.3-2.5v-26C49.1,13.4,48.1,12.3,46.8,12.2z"/>
<path class="st2" d="M49,40.7c0.1,1.3-1,2.4-2.3,2.5H3.2c-1.3-0.1-2.3-1.2-2.3-2.5v-26c-0.1-1.3,1-2.4,2.3-2.5h43.6
	c1.3,0.1,2.3,1.2,2.3,2.5L49,40.7L49,40.7z"/>
</svg>
