<?xml version="1.0" encoding="utf-8"?>
<!-- Generator: Adobe Illustrator 24.0.1, SVG Export Plug-In . SVG Version: 6.00 Build 0)  -->
<svg version="1.1" id="레이어_1" xmlns="http://www.w3.org/2000/svg" xmlns:xlink="http://www.w3.org/1999/xlink" x="0px"
	 y="0px" viewBox="0 0 57.6 38.3" style="enable-background:new 0 0 57.6 38.3;" xml:space="preserve">
<style type="text/css">
	.st0{fill:#C5DDEF;}
	.st1{fill:none;stroke:#572826;stroke-width:1.8;stroke-linecap:round;stroke-linejoin:round;}
	.st2{fill:#D7E9FF;}
	.st3{fill:none;stroke:#572826;stroke-width:1.86;stroke-linecap:round;stroke-linejoin:round;}
</style>
<title>자산 1</title>
<path class="st0" d="M46.8,6.3H20l-0.5-2.9c0.1-1.3-1-2.5-2.3-2.5l0,0h-14C1.9,1,0.8,2.1,0.9,3.4l0,0l0,0v31.4
	c-0.1,1.3,1,2.4,2.3,2.5h43.6c1.3-0.1,2.3-1.2,2.3-2.5l0,0v-26C49.1,7.5,48.1,6.4,46.8,6.3z"/>
<path class="st1" d="M46.8,6.3H20l-0.5-2.9c0.1-1.3-1-2.5-2.3-2.5l0,0h-14C1.9,1,0.8,2.1,0.9,3.4l0,0l0,0v31.4
	c-0.1,1.3,1,2.4,2.3,2.5h43.6c1.3-0.1,2.3-1.2,2.3-2.5l0,0v-26C49.1,7.5,48.1,6.4,46.8,6.3z"/>
<path class="st2" d="M49.2,34.6c-0.3,1.4-1.5,2.5-3,2.7H2.7c-1.3,0-2-1.2-1.6-2.7l7.2-21.9c0.3-1.4,1.5-2.5,3-2.7h43.6
	c1.3,0,2,1.2,1.6,2.7L49.2,34.6z"/>
<path class="st0" d="M54.9,10.1h-13C37,18,30.4,29.3,25.5,37.4h20.7c1.5-0.2,2.7-1.3,3-2.7l7.2-21.9C56.9,11.3,56.2,10.1,54.9,10.1z
	"/>
<path class="st3" d="M49.2,34.6c-0.3,1.4-1.5,2.5-3,2.7H2.7c-1.3,0-2-1.2-1.6-2.7l7.2-21.9c0.3-1.4,1.5-2.5,3-2.7h43.6
	c1.3,0,2,1.2,1.6,2.7L49.2,34.6z"/>
</svg>
