<?xml version="1.0" encoding="utf-8"?>
<!-- Generator: Adobe Illustrator 24.0.1, SVG Export Plug-In . SVG Version: 6.00 Build 0)  -->
<svg version="1.1" id="레이어_1" xmlns="http://www.w3.org/2000/svg" xmlns:xlink="http://www.w3.org/1999/xlink" x="0px"
	 y="0px" viewBox="0 0 57.6 57.6" style="enable-background:new 0 0 57.6 57.6;" xml:space="preserve">
<style type="text/css">
	.st0{fill:none;}
	.st1{fill:#C5DDEF;}
	.st2{fill:none;stroke:#572826;stroke-width:1.8;stroke-linecap:round;stroke-linejoin:round;}
	.st3{fill:#D7E9FF;}
	.st4{fill:none;stroke:#572826;stroke-width:1.86;stroke-linecap:round;stroke-linejoin:round;}
</style>
<rect class="st0" width="57.6" height="57.6"/>
<title>자산 1</title>
<path class="st1" d="M46.8,16H20l-0.5-2.9c0.1-1.3-1-2.5-2.3-2.5l0,0h-14c-1.3,0.1-2.4,1.2-2.3,2.5l0,0l0,0v31.4
	c-0.1,1.3,1,2.4,2.3,2.5h43.6c1.3-0.1,2.3-1.2,2.3-2.5l0,0v-26C49.1,17.1,48.1,16.1,46.8,16z"/>
<path class="st2" d="M46.8,16H20l-0.5-2.9c0.1-1.3-1-2.5-2.3-2.5l0,0h-14c-1.3,0.1-2.4,1.2-2.3,2.5l0,0l0,0v31.4
	c-0.1,1.3,1,2.4,2.3,2.5h43.6c1.3-0.1,2.3-1.2,2.3-2.5l0,0v-26C49.1,17.1,48.1,16.1,46.8,16z"/>
<path class="st3" d="M49.2,44.3c-0.3,1.4-1.5,2.5-3,2.7H2.7c-1.3,0-2-1.2-1.6-2.7l7.2-21.9c0.3-1.4,1.5-2.5,3-2.7h43.6
	c1.3,0,2,1.2,1.6,2.7L49.2,44.3z"/>
<path class="st1" d="M54.9,19.8h-13C37,27.6,30.4,39,25.5,47.1h20.7c1.5-0.2,2.7-1.3,3-2.7l7.2-21.9C56.9,21,56.2,19.8,54.9,19.8z"
	/>
<path class="st4" d="M49.2,44.3c-0.3,1.4-1.5,2.5-3,2.7H2.7c-1.3,0-2-1.2-1.6-2.7l7.2-21.9c0.3-1.4,1.5-2.5,3-2.7h43.6
	c1.3,0,2,1.2,1.6,2.7L49.2,44.3z"/>
</svg>
