<svg xmlns="http://www.w3.org/2000/svg" viewBox="0 0 49.96 38.25"><defs><style>.cls-1{fill:#efd472;}.cls-2{fill:none;stroke:#572826;stroke-linecap:round;stroke-linejoin:round;stroke-width:1.8px;}.cls-3{fill:#efb072;}</style></defs><title>자산 2</title><g id="레이어_2" data-name="레이어 2"><g id="레이어_1-2" data-name="레이어 1"><path class="cls-1" d="M24,29.39a2.4,2.4,0,0,1-2.28,2.52H3.18A2.42,2.42,0,0,1,.9,29.39v-26A2.4,2.4,0,0,1,3.18.9h14a2.4,2.4,0,0,1,2.28,2.51Z"/><path class="cls-2" d="M24,29.39a2.4,2.4,0,0,1-2.28,2.52H3.18A2.42,2.42,0,0,1,.9,29.39v-26A2.4,2.4,0,0,1,3.18.9h14a2.4,2.4,0,0,1,2.28,2.51Z"/><path class="cls-1" d="M49.05,34.84a2.4,2.4,0,0,1-2.28,2.51H3.18A2.4,2.4,0,0,1,.9,34.84v-26A2.4,2.4,0,0,1,3.18,6.35H46.77a2.4,2.4,0,0,1,2.28,2.51Z"/><path class="cls-3" d="M46.77,6.35H37c-5.3,8.72-13.4,22.29-18.6,31H46.77a2.4,2.4,0,0,0,2.28-2.51v-26A2.4,2.4,0,0,0,46.77,6.35Z"/><path class="cls-2" d="M49.05,34.84a2.4,2.4,0,0,1-2.28,2.51H3.18A2.4,2.4,0,0,1,.9,34.84v-26A2.4,2.4,0,0,1,3.18,6.35H46.77a2.4,2.4,0,0,1,2.28,2.51Z"/></g></g></svg>