<svg xmlns="http://www.w3.org/2000/svg" viewBox="0 0 59.49 38.28"><defs><style>.cls-1{fill:#efb072;}.cls-2,.cls-4{fill:none;stroke:#572826;stroke-linecap:round;stroke-linejoin:round;}.cls-2{stroke-width:1.8px;}.cls-3{fill:#fff;}.cls-4{stroke-width:1.86px;}.cls-5{fill:#efd472;}</style></defs><title>자산 2 (2)</title><g id="레이어_2" data-name="레이어 2"><g id="레이어_1-2" data-name="레이어 1"><path class="cls-1" d="M46.77,6.34H20l-.51-2.93A2.4,2.4,0,0,0,17.21.9h-14A2.4,2.4,0,0,0,.9,3.39V34.84a2.4,2.4,0,0,0,2.28,2.51H46.77a2.4,2.4,0,0,0,2.28-2.51v-26A2.41,2.41,0,0,0,46.77,6.34Z"/><path class="cls-2" d="M46.77,6.34H20l-.51-2.93A2.4,2.4,0,0,0,17.21.9h-14A2.4,2.4,0,0,0,.9,3.39V34.84a2.4,2.4,0,0,0,2.28,2.51H46.77a2.4,2.4,0,0,0,2.28-2.51v-26A2.41,2.41,0,0,0,46.77,6.34Z"/><path class="cls-3" d="M51.19,29.15a3.5,3.5,0,0,1-3,2.7H8.86c-1.26,0-2-1.21-1.58-2.7L14.53,7.23a3.51,3.51,0,0,1,3-2.71H56.86c1.26,0,2,1.21,1.58,2.71Z"/><path class="cls-4" d="M51.19,29.15a3.5,3.5,0,0,1-3,2.7H8.86c-1.26,0-2-1.21-1.58-2.7L14.53,7.23a3.51,3.51,0,0,1,3-2.71H56.86c1.26,0,2,1.21,1.58,2.71Z"/><path class="cls-5" d="M49.24,34.64a3.49,3.49,0,0,1-3,2.71H2.66c-1.26,0-2-1.21-1.57-2.71L8.33,12.75a3.5,3.5,0,0,1,3-2.7h43.6c1.26,0,2,1.21,1.57,2.7Z"/><path class="cls-1" d="M54.91,10.05H40.34c-5,8.18-11.65,19.39-16.34,27.3H46.26a3.49,3.49,0,0,0,3-2.71L56.5,12.75C56.87,11.23,56.17,10.05,54.91,10.05Z"/><path class="cls-4" d="M49.24,34.64a3.49,3.49,0,0,1-3,2.71H2.66c-1.26,0-2-1.21-1.57-2.71L8.33,12.75a3.5,3.5,0,0,1,3-2.7h43.6c1.26,0,2,1.21,1.57,2.7Z"/></g></g></svg>