<svg xmlns="http://www.w3.org/2000/svg" viewBox="0 0 46.19 36.46"><defs><style>.cls-1{fill:#fc775c;}.cls-2{fill:#e83541;}.cls-3{fill:none;stroke:#572826;stroke-linecap:round;stroke-linejoin:round;stroke-width:1.99px;}</style></defs><title>자산 5</title><g id="레이어_2" data-name="레이어 2"><g id="레이어_1-2" data-name="레이어 1"><path class="cls-1" d="M41.35,3.65c-5-5-13.06-1.27-18.26,3.46C17.9,2.38,9.86-1.37,4.84,3.65a13.22,13.22,0,0,0-.43,18.18c.14.16.28.33.44.48L23.1,35.47,41.36,22.31c.15-.15.29-.32.44-.48A13.23,13.23,0,0,0,41.35,3.65Z"/><path class="cls-2" d="M41.35,3.65C36.69-1,29.45,1.88,24.28,6.09l-11.45,22,10.26,7.39L41.35,22.32c.15-.15.29-.32.44-.48A13.22,13.22,0,0,0,41.35,3.65Z"/><path class="cls-3" d="M41.35,3.65c-5-5-13.78-2-18.26,3.46C19,1.27,9.86-1.37,4.84,3.65a13.22,13.22,0,0,0-.43,18.18c.14.16.28.33.44.48L23.1,35.47,41.36,22.31c.15-.15.29-.32.44-.48A13.23,13.23,0,0,0,41.35,3.65Z"/></g></g></svg>