<svg id="Layer_1" data-name="Layer 1" xmlns="http://www.w3.org/2000/svg" viewBox="0 0 784 784"><defs><style>.cls-1{fill:#ffebb4;}.cls-1,.cls-10,.cls-2,.cls-3,.cls-4,.cls-5,.cls-6,.cls-7,.cls-8,.cls-9{stroke:#572826;stroke-miterlimit:10;stroke-width:30px;}.cls-2{fill:#fff;}.cls-3{fill:#ffb14e;}.cls-4{fill:#ff755c;}.cls-5{fill:#ff4181;}.cls-6{fill:#3b8bc0;}.cls-7{fill:#4eb9ff;}.cls-8{fill:#85c250;}.cls-9{fill:#c9d467;}.cls-10{fill:#ffce47;}</style></defs><title>palette</title><path class="cls-1" d="M400,76.68c431.72,19.23,426.67,629.82,0,646.64C-31.73,704.08-26.67,93.5,400,76.68Z" transform="translate(-8 -8)"/><path class="cls-2" d="M525.64,400c-8.3-169.61-245.65-163.89-251.28,0C282.66,569.61,520,563.89,525.64,400Z" transform="translate(-8 -8)"/><path class="cls-3" d="M651.27,400l62.82,35.73L776.91,400A375.71,375.71,0,0,0,666.58,133.42l-70.14,18.27-18.72,70.59A250.48,250.48,0,0,1,651.27,400Z" transform="translate(-8 -8)"/><path class="cls-4" d="M577.68,577.68l19.15,69.68,69.69,19.16A375.76,375.76,0,0,0,777,400H651.33A250.51,250.51,0,0,1,577.68,577.68Z" transform="translate(-8 -8)"/><path class="cls-5" d="M400,651.27l-35.73,62.82L400,776.91A375.73,375.73,0,0,0,666.58,666.58l-88.86-88.86A250.48,250.48,0,0,1,400,651.27Z" transform="translate(-8 -8)"/><path class="cls-6" d="M222.32,577.68l-69.68,19.15-19.16,69.69A375.76,375.76,0,0,0,400,777V651.33A250.51,250.51,0,0,1,222.32,577.68Z" transform="translate(-8 -8)"/><path class="cls-7" d="M148.73,400,85.91,364.27,23.09,400A375.73,375.73,0,0,0,133.42,666.58l88.86-88.86A250.48,250.48,0,0,1,148.73,400Z" transform="translate(-8 -8)"/><path class="cls-8" d="M222.32,222.32l-19.15-69.68-69.69-19.16A375.76,375.76,0,0,0,23,400H148.67A250.51,250.51,0,0,1,222.32,222.32Z" transform="translate(-8 -8)"/><path class="cls-9" d="M400,148.73l35.73-62.82L400,23.09A375.71,375.71,0,0,0,133.42,133.42l88.86,88.86A250.48,250.48,0,0,1,400,148.73Z" transform="translate(-8 -8)"/><path class="cls-10" d="M577.68,222.32l88.84-88.84A375.76,375.76,0,0,0,400,23V148.67A250.51,250.51,0,0,1,577.68,222.32Z" transform="translate(-8 -8)"/></svg>