<svg xmlns="http://www.w3.org/2000/svg" viewBox="0 0 40.14 46.26"><defs><style>.cls-1{fill:#fff;}.cls-2{fill:#b4d1e2;opacity:0.6;isolation:isolate;}.cls-3{fill:none;stroke:#572826;stroke-linecap:round;stroke-linejoin:round;stroke-width:1.99px;}.cls-4{fill:#572826;}</style></defs><title>자산 4</title><g id="레이어_2" data-name="레이어 2"><g id="레이어_1-2" data-name="레이어 1"><path class="cls-1" d="M37.3,1H11.18L1,10.67V43.42a1.84,1.84,0,0,0,1.82,1.85H37.3a1.85,1.85,0,0,0,1.85-1.85h0V2.85A1.85,1.85,0,0,0,37.3,1Z"/><path class="cls-2" d="M15.33,45.27h22a1.85,1.85,0,0,0,1.85-1.85h0v-37Z"/><path class="cls-3" d="M37.3,1H11.18L1,10.67V43.42a1.84,1.84,0,0,0,1.82,1.85H37.3a1.85,1.85,0,0,0,1.85-1.85h0V2.85A1.85,1.85,0,0,0,37.3,1Z"/><path class="cls-3" d="M11.18,1l-9.9,9.4H9.51a1.85,1.85,0,0,0,1.85-1.85h0V1Z"/><path class="cls-4" d="M34.06,15.53a.73.73,0,0,1-.72.71H6.8a.71.71,0,0,1-.71-.71h0a.69.69,0,0,1,.69-.72H33.34a.72.72,0,0,1,.72.72Z"/><path class="cls-4" d="M34.06,22.68a.73.73,0,0,1-.72.72H6.8a.71.71,0,0,1-.72-.71h0A.7.7,0,0,1,6.8,22H33.34a.69.69,0,0,1,.71.69Z"/><path class="cls-4" d="M34.06,29.83a.73.73,0,0,1-.72.72H6.8a.71.71,0,0,1-.72-.71h0a.7.7,0,0,1,.71-.71H33.34A.71.71,0,0,1,34.06,29.83Z"/><path class="cls-4" d="M34.06,37a.73.73,0,0,1-.72.71H6.8A.71.71,0,0,1,6.09,37h0a.69.69,0,0,1,.69-.72H33.34a.72.72,0,0,1,.72.72Z"/></g></g></svg>