<svg xmlns="http://www.w3.org/2000/svg" viewBox="0 0 43.81 43.81"><defs><style>.cls-1{fill:#efd472;}.cls-2{fill:#efb072;}.cls-3,.cls-5{fill:none;stroke:#572826;stroke-linecap:round;stroke-linejoin:round;}.cls-3{stroke-width:1.99px;}.cls-4{fill:#572826;}.cls-5{stroke-width:1.94px;}</style></defs><title>자산 3</title><g id="레이어_2" data-name="레이어 2"><g id="레이어_1-2" data-name="레이어 1"><path class="cls-1" d="M42.81,21.91A20.91,20.91,0,1,1,21.9,1,20.91,20.91,0,0,1,42.81,21.91Z"/><path class="cls-2" d="M42.81,21.91A20.81,20.81,0,0,0,35.74,6.25C29,15.6,18.74,30,12.12,39.42a22.15,22.15,0,0,0,3.19,2.34A20.91,20.91,0,0,0,41.75,28.52,20.65,20.65,0,0,0,42.81,21.91Z"/><path class="cls-3" d="M42.81,21.91A20.91,20.91,0,1,1,21.9,1,20.91,20.91,0,0,1,42.81,21.91Z"/><path class="cls-4" d="M16.69,15.35c0,3-1.22,5.51-2.72,5.51s-2.71-2.47-2.71-5.51S12.48,9.82,14,9.82,16.69,12.3,16.69,15.35Z"/><path class="cls-4" d="M32.52,15.35c0,3-1.21,5.51-2.71,5.51s-2.7-2.47-2.7-5.51,1.2-5.53,2.7-5.53S32.52,12.3,32.52,15.35Z"/><path class="cls-5" d="M12,26.08S11.78,34.7,22.1,34.7,32,25.88,32,25.88"/></g></g></svg>