<?xml version="1.0" encoding="utf-8"?>
<!-- Generator: Adobe Illustrator 24.0.1, SVG Export Plug-In . SVG Version: 6.00 Build 0)  -->
<svg version="1.1" id="레이어_1" xmlns="http://www.w3.org/2000/svg" xmlns:xlink="http://www.w3.org/1999/xlink" x="0px"
	 y="0px" viewBox="0 0 43.8 43.8" style="enable-background:new 0 0 43.8 43.8;" xml:space="preserve">
<style type="text/css">
	.st0{fill:#EFD472;}
	.st1{fill:#EFB072;}
	.st2{fill:none;stroke:#572826;stroke-width:1.99;stroke-linecap:round;stroke-linejoin:round;}
	.st3{fill:#572826;}
	.st4{display:none;fill:#572826;}
	.st5{fill:none;stroke:#572826;stroke-width:1.94;stroke-linecap:round;stroke-linejoin:round;}
	.st6{fill:none;stroke:#572826;stroke-width:1.8;stroke-linecap:round;stroke-linejoin:round;stroke-miterlimit:10;}
</style>
<title>자산 3</title>
<g id="레이어_2_1_">
	<g id="레이어_1-2">
		<path class="st0" d="M42.5,22.1c0,11.5-9.4,20.9-20.9,20.9S0.7,33.7,0.7,22.1S10,1.2,21.6,1.2C33.1,1.2,42.5,10.6,42.5,22.1
			L42.5,22.1z"/>
		<path class="st1" d="M42.8,21.9c0-6-2.6-11.7-7.1-15.7C29,15.6,18.7,30,12.1,39.4c1,0.9,2.1,1.7,3.2,2.3
			c11,3.6,22.8-2.3,26.4-13.2C42.5,26.4,42.8,24.1,42.8,21.9z"/>
		<path class="st2" d="M42.8,21.9c0,11.5-9.4,20.9-20.9,20.9S1,33.4,1,21.9S10.3,1,21.9,1C33.4,1,42.8,10.3,42.8,21.9L42.8,21.9z"/>
		<path class="st3" d="M16.7,15.3c0,3-1.2,5.5-2.7,5.5s-2.7-2.5-2.7-5.5s1.2-5.5,2.7-5.5S16.7,12.3,16.7,15.3z"/>
		<path class="st4" d="M32.5,15.3c0,3-1.2,5.5-2.7,5.5s-2.7-2.5-2.7-5.5s1.2-5.5,2.7-5.5S32.5,12.3,32.5,15.3z"/>
		<path class="st5" d="M12,26c0,0-0.2,8.6,10.1,8.6s9.9-8.8,9.9-8.8"/>
	</g>
</g>
<line class="st6" x1="26.3" y1="15.2" x2="31.8" y2="10.6"/>
<line class="st6" x1="31.8" y1="20" x2="26.3" y2="15.4"/>
</svg>
