<svg xmlns="http://www.w3.org/2000/svg" viewBox="0 0 42.81 40.81"><defs><style>.cls-1{fill:#efd472;}.cls-2{fill:#efb072;}.cls-3{fill:none;stroke:#572826;stroke-linecap:round;stroke-linejoin:round;stroke-width:1.99px;}</style></defs><title>자산 6</title><g id="레이어_2" data-name="레이어 2"><g id="레이어_1-2" data-name="레이어 1"><polygon class="cls-1" points="21.41 0.99 27.59 13.95 41.81 15.82 31.41 25.7 34.02 39.81 21.41 32.98 8.79 39.81 11.4 25.7 0.99 15.82 15.22 13.95 21.41 0.99"/><path class="cls-2" d="M8.79,39.82l12.62-6.88L34,39.77,31.4,25.67l10.41-9.88L27.59,13.94S12.52,24.45,11.41,25.7Z"/><polygon class="cls-3" points="21.41 0.99 27.59 13.95 41.81 15.82 31.41 25.7 34.02 39.81 21.41 32.98 8.79 39.81 11.4 25.7 0.99 15.82 15.22 13.95 21.41 0.99"/></g></g></svg>